<?xml version="1.0" standalone="no"?>
<!DOCTYPE svg PUBLIC "-//W3C//DTD SVG 20010904//EN"
 "http://www.w3.org/TR/2001/REC-SVG-20010904/DTD/svg10.dtd">
<svg version="1.0" xmlns="http://www.w3.org/2000/svg"
 width="500.000000pt" height="500.000000pt" viewBox="0 0 500.000000 500.000000"
 preserveAspectRatio="xMidYMid meet">

<g transform="translate(0.000000,500.000000) scale(0.100000,-0.100000)"
fill="#000000" stroke="none">
<path d="M2835 3956 c-263 -51 -614 -177 -780 -281 -230 -143 -411 -406 -490
-711 -57 -220 -48 -517 20 -681 13 -30 12 -39 -16 -105 -16 -39 -34 -77 -40
-85 -9 -10 -7 -13 10 -13 12 0 20 4 16 9 -9 16 16 59 39 65 37 10 43 7 55 -34
6 -22 18 -40 26 -40 16 0 29 17 16 22 -5 1 -18 33 -29 71 l-20 67 54 0 c47 0
54 -3 54 -19 0 -12 17 -31 42 -48 24 -16 44 -36 46 -45 5 -25 -35 -43 -64 -29
-16 7 -25 7 -30 0 -17 -28 47 -29 84 -2 42 31 40 57 -9 89 -66 45 -62 54 25
54 68 0 76 -2 76 -19 0 -12 17 -31 42 -48 24 -16 44 -36 46 -46 5 -24 -39 -43
-66 -28 -15 8 -23 8 -27 0 -18 -28 46 -30 83 -2 42 31 40 57 -9 89 -45 30 -61
54 -36 54 10 0 0 29 -34 98 -27 53 -58 133 -69 177 -55 214 -43 518 28 725
101 294 344 500 662 561 79 15 339 15 432 0 115 -19 199 -50 236 -87 24 -24
32 -39 27 -54 -8 -26 -3 -26 66 12 80 42 193 138 197 166 7 46 -51 81 -173
107 -110 22 -397 29 -490 11z m-1206 -1773 c1 -7 -10 -13 -24 -13 l-26 0 17
32 c16 30 18 31 25 13 4 -11 8 -26 8 -32z"/>
<path d="M2600 2818 c-198 -9 -207 -11 -266 -39 -33 -17 -82 -48 -108 -69
l-48 -40 96 7 96 6 0 -44 c0 -78 -71 -359 -90 -359 -4 0 -6 -9 -3 -20 4 -17
14 -20 58 -20 l53 0 47 136 c29 82 51 130 55 122 9 -16 60 -193 60 -207 0 -6
-8 -11 -17 -11 -16 0 -18 -11 -18 -100 l0 -100 25 0 c15 0 20 3 13 8 -7 5 -10
22 -6 49 5 36 9 43 32 46 l26 4 -27 2 c-26 1 -28 4 -28 44 1 33 3 38 11 25 8
-15 24 -18 85 -18 87 0 85 4 35 -102 -25 -54 -26 -58 -9 -58 11 0 17 4 13 9
-9 16 16 59 39 65 37 10 43 7 55 -34 6 -22 18 -40 26 -40 16 0 29 17 16 22 -5
1 -18 33 -29 71 -20 67 -20 67 0 67 14 0 18 5 14 18 -74 248 -137 464 -134
466 2 1 36 24 76 50 66 44 84 58 65 54 -5 0 -100 -5 -213 -10z m159 -635 c1
-7 -10 -13 -24 -13 l-26 0 17 32 c16 30 18 31 25 13 4 -11 8 -26 8 -32z"/>
<path d="M3835 2818 c-199 -9 -200 -9 -270 -43 -39 -18 -88 -49 -110 -68 l-40
-35 115 2 115 1 -2 -74 c-1 -43 -16 -128 -34 -203 -32 -129 -32 -129 -58 -122
-68 20 -123 -4 -147 -63 -9 -21 -13 -47 -9 -64 8 -35 49 -69 84 -69 63 0 130
78 115 135 -6 23 -4 25 31 25 l37 0 -4 -80 c-2 -53 1 -80 8 -80 6 0 9 12 6 30
-2 16 -1 46 3 66 l6 37 64 -68 c60 -63 64 -66 69 -44 7 33 12 189 6 189 -3 0
-12 -5 -20 -10 -10 -6 -11 -10 -2 -10 8 0 12 -21 12 -70 0 -38 -2 -70 -5 -70
-8 0 -91 85 -109 112 -17 26 -16 30 34 190 29 89 57 181 64 203 11 34 22 45
77 75 94 52 196 120 179 118 -8 -1 -105 -5 -215 -10z m-297 -568 c26 -24 37
-61 28 -94 -23 -91 -146 -64 -146 32 0 72 69 108 118 62z"/>
<path d="M1280 2811 c-107 -7 -172 -32 -251 -101 l-44 -38 99 2 99 1 66 -190
67 -190 -40 -9 -41 -10 44 -6 c25 -4 47 -12 49 -18 2 -7 19 -12 38 -12 l34 0
0 -61 c0 -33 -5 -69 -10 -80 -10 -18 -7 -19 37 -19 26 0 55 5 63 10 11 7 4 10
-27 10 l-43 0 0 70 c0 67 1 70 23 70 l24 0 -23 85 c-30 113 -48 298 -39 408 6
80 5 87 -12 85 -10 -1 -61 -4 -113 -7z"/>
<path d="M1985 2281 c-17 -7 -16 -9 10 -13 35 -7 53 1 34 13 -16 10 -18 10
-44 0z"/>
<path d="M2090 2280 c-11 -7 -12 -10 -2 -10 10 0 13 -21 10 -95 -3 -81 -1 -95
13 -95 11 0 15 8 12 28 -2 15 0 62 5 105 7 67 6 77 -7 77 -9 0 -23 -5 -31 -10z"/>
<path d="M2945 2281 c-17 -7 -16 -9 10 -13 35 -7 53 1 34 13 -16 10 -18 10
-44 0z"/>
<path d="M3050 2280 c-11 -7 -12 -10 -2 -10 11 0 13 -20 10 -95 -3 -84 -1 -95
14 -95 9 0 20 5 23 10 3 6 1 10 -4 10 -6 0 -11 13 -11 29 0 53 8 61 62 61 l50
0 -4 -55 c-2 -46 0 -55 14 -55 20 0 33 17 17 22 -8 3 -9 29 -2 96 8 80 7 92
-7 92 -19 0 -51 -20 -32 -20 7 0 12 -14 12 -36 l0 -35 -51 3 -51 3 4 43 c3 44
-9 53 -42 32z"/>
<path d="M3300 2288 c-1 -2 -2 -49 -3 -106 l-2 -102 25 0 c14 0 20 4 15 8 -6
4 -8 44 -5 105 5 88 3 97 -12 97 -10 0 -18 -1 -18 -2z"/>
<path d="M1198 2253 c-47 -54 -50 -103 -9 -144 31 -30 80 -39 111 -19 11 7 6
10 -21 10 -57 0 -89 31 -89 86 0 31 6 50 20 64 11 11 16 20 12 20 -5 0 -16 -8
-24 -17z"/>
<path d="M2228 2253 c-47 -54 -50 -103 -9 -144 31 -30 80 -39 111 -19 11 7 6
10 -21 10 -57 0 -89 31 -89 86 0 31 6 50 20 64 11 11 16 20 12 20 -5 0 -16 -8
-24 -17z"/>
<path d="M2897 2252 c-27 -29 -20 -49 25 -79 24 -16 44 -36 46 -45 5 -25 -35
-43 -64 -29 -16 7 -25 7 -30 0 -17 -28 47 -29 84 -2 42 31 40 58 -8 88 -47 29
-58 49 -40 70 18 21 6 19 -13 -3z"/>
<path d="M2150 1880 l-275 -5 35 -26 c19 -15 47 -34 62 -44 19 -12 33 -34 45
-72 17 -54 18 -55 34 -34 10 12 19 26 21 33 5 15 98 -20 98 -37 0 -6 14 -11
33 -11 17 0 68 -10 112 -22 109 -30 201 -42 320 -42 94 0 120 5 295 50 67 17
370 183 370 202 0 12 -83 9 -189 -6 -161 -24 -163 -25 -156 -7 5 12 2 12 -13
-2 -24 -22 -112 -24 -112 -2 0 30 -85 48 -120 25 -10 -6 -11 -10 -2 -10 6 0
12 -7 12 -16 0 -14 -9 -15 -62 -9 -38 4 -66 13 -71 22 -6 9 -12 11 -20 4 -8
-6 -30 -6 -62 0 -28 5 -57 10 -65 12 -8 1 -139 0 -290 -3z m650 -25 c11 -13 7
-15 -24 -15 -25 0 -36 4 -36 15 0 9 9 15 24 15 13 0 29 -7 36 -15z m-736 -120
c-7 -16 -24 -21 -24 -6 0 5 -3 17 -7 26 -5 15 -3 16 15 6 13 -7 19 -17 16 -26z"/>
<path d="M2985 1881 c-17 -7 -16 -9 10 -13 35 -7 53 1 34 13 -16 10 -18 10
-44 0z"/>
<path d="M1450 1874 c0 -10 164 -545 231 -758 34 -103 64 -184 68 -180 20 22
134 198 180 275 62 107 191 359 191 375 0 6 -17 18 -37 26 l-38 14 -91 -186
c-55 -111 -94 -179 -97 -170 -3 8 -43 134 -87 280 -45 146 -86 280 -91 298
l-11 32 -109 0 c-60 0 -109 -3 -109 -6z"/>
<path d="M3472 1865 c2 -8 -16 -32 -38 -52 -36 -33 -52 -63 -114 -218 -94
-229 -143 -340 -154 -346 -5 -2 -38 72 -74 164 -53 135 -69 166 -81 161 -9 -4
-55 -19 -103 -33 -48 -15 -90 -29 -93 -32 -4 -5 65 -195 177 -482 l34 -89 87
105 c48 58 87 110 87 115 0 5 37 85 81 178 85 175 239 522 239 536 0 4 -11 8
-25 8 -18 0 -25 -5 -23 -15z"/>
</g>
</svg>
